<svg xmlns="http://www.w3.org/2000/svg" viewBox="0 0 1600 900"><defs><linearGradient id="s" x1="0" y1="0" x2="0" y2="1"><stop stop-color="#bbd0c2"/><stop offset="1" stop-color="#f3eee2"/></linearGradient></defs><rect width="1600" height="900" fill="url(#s)"/><path d="M0 520 300 360 590 520 850 330 1190 530 1600 390V900H0Z" fill="#536c5d" opacity=".75"/><path d="M0 650 250 520 470 650 720 485 980 660 1220 515 1600 650V900H0Z" fill="#294a37"/><rect y="700" width="1600" height="200" fill="#49653a"/><g fill="#1b3326"><circle cx="180" cy="630" r="95"/><rect x="165" y="620" width="30" height="150"/><circle cx="1380" cy="590" r="110"/><rect x="1360" y="585" width="38" height="190"/></g><g transform="translate(760 610)"><rect x="0" y="0" width="300" height="95" rx="18" fill="#d69a28"/><circle cx="65" cy="105" r="46" fill="#202420"/><circle cx="235" cy="105" r="46" fill="#202420"/><rect x="180" y="-72" width="90" height="72" fill="#d69a28"/><circle cx="302" cy="72" r="72" fill="#292d29"/><circle cx="302" cy="72" r="45" fill="#737a74"/></g><g transform="translate(1130 655)"><rect width="190" height="58" rx="14" fill="#2b5e31"/><circle cx="44" cy="74" r="30" fill="#1d241f"/><circle cx="150" cy="74" r="30" fill="#1d241f"/><rect x="70" y="-42" width="70" height="42" fill="#2b5e31"/><path d="M86-42h38V-86H86Z" fill="#1c2e23"/></g><ellipse cx="1070" cy="800" rx="175" ry="45" fill="#8a6742"/><rect x="1045" y="735" width="50" height="75" rx="8" fill="#6f5539"/></svg>